<svg width="20" height="6" viewBox="0 0 20 6" fill="none" xmlns="http://www.w3.org/2000/svg">
<path d="M3.82258 4.35833L3.59758 4.34833H1.57508L4.27092 1.6525L4.26008 1.4275C4.25586 1.25312 4.1847 1.08706 4.06136 0.963718C3.93802 0.84038 3.77196 0.769224 3.59758 0.764995L3.37258 0.754162H0.00341797L0.0150846 0.979162C0.043418 1.34416 0.309251 1.62083 0.676751 1.64166L0.901751 1.6525H2.92508L0.227585 4.34833L0.239251 4.5725C0.251751 4.93333 0.540918 5.2225 0.901751 5.23583L1.12675 5.24666H4.49675L4.48508 5.02166C4.45508 4.6525 4.19342 4.3825 3.82258 4.35916V4.35833ZM6.52008 0.754162H6.51675C5.92123 0.754493 5.35022 0.991339 4.92929 1.41261C4.50837 1.83389 4.272 2.4051 4.27217 3.00062C4.27233 3.59614 4.50902 4.16722 4.93018 4.58826C5.35134 5.0093 5.92248 5.24583 6.518 5.24583C7.11352 5.24583 7.68467 5.0093 8.10582 4.58826C8.52698 4.16722 8.76367 3.59614 8.76383 3.00062C8.764 2.4051 8.52763 1.83389 8.10671 1.41261C7.68579 0.991339 7.11477 0.754493 6.51925 0.754162H6.52008ZM7.47092 3.95333C7.34694 4.08364 7.19814 4.18783 7.03329 4.25977C6.86843 4.3317 6.69084 4.36992 6.51099 4.37218C6.33114 4.37444 6.15265 4.3407 5.98604 4.27293C5.81943 4.20516 5.66806 4.10474 5.54084 3.97758C5.41363 3.85042 5.31314 3.6991 5.2453 3.53251C5.17746 3.36593 5.14364 3.18746 5.14582 3.0076C5.148 2.82775 5.18614 2.65015 5.258 2.48526C5.32986 2.32037 5.43399 2.17153 5.56425 2.0475C5.81905 1.80487 6.15859 1.67145 6.5104 1.67572C6.86221 1.67999 7.19842 1.8216 7.44726 2.07033C7.6961 2.31906 7.83786 2.65521 7.84228 3.00701C7.8467 3.35882 7.71343 3.69842 7.47092 3.95333ZM18.1976 0.754995C17.943 0.755186 17.6914 0.809442 17.4594 0.914171C17.2274 1.0189 17.0203 1.17171 16.8518 1.36249C16.6833 1.17088 16.4759 1.01743 16.2433 0.91238C16.0108 0.807331 15.7586 0.753106 15.5034 0.753328C15.1445 0.752817 14.7938 0.860247 14.4968 1.06166C14.3218 0.867495 13.9301 0.753328 13.7068 0.753328V5.24666L13.9318 5.23583C14.3068 5.21083 14.5793 4.945 14.5943 4.5725L14.6051 4.3475V2.77499L14.6168 2.55C14.6251 2.38166 14.6501 2.23166 14.7268 2.1C14.7858 1.99789 14.8645 1.90843 14.9581 1.83671C15.0518 1.765 15.1587 1.71243 15.2727 1.68202C15.3867 1.65161 15.5055 1.64395 15.6225 1.65947C15.7394 1.67499 15.8521 1.7134 15.9543 1.7725C16.0898 1.85105 16.2024 1.96366 16.2809 2.09916C16.3584 2.23249 16.3809 2.38166 16.3909 2.54916L16.4026 2.77499V4.3475L16.4134 4.57166C16.4359 4.93833 16.7051 5.21166 17.0759 5.235L17.3009 5.24583V2.77499L17.3109 2.55C17.3193 2.38333 17.3443 2.23 17.4226 2.09749C17.6718 1.66916 18.2218 1.5225 18.6501 1.7725C18.7857 1.85128 18.8983 1.96419 18.9768 2.1C19.0534 2.23333 19.0768 2.38583 19.0859 2.55L19.0976 2.77499V4.3475L19.1084 4.57166C19.1318 4.94083 19.4001 5.21333 19.7718 5.235L19.9968 5.24583V2.55C19.9965 2.31387 19.9498 2.08011 19.8592 1.86206C19.7686 1.644 19.636 1.44593 19.4688 1.27916C19.3016 1.11239 19.1033 0.980192 18.885 0.890111C18.6667 0.800029 18.4329 0.753833 18.1968 0.754162L18.1976 0.754995ZM9.64758 1.41166C9.43021 1.61815 9.25636 1.86606 9.13628 2.14078C9.0162 2.41551 8.95233 2.71148 8.94842 3.01128C8.94451 3.31107 9.00064 3.60861 9.11351 3.88637C9.22639 4.16413 9.39371 4.41649 9.60563 4.62858C9.81755 4.84067 10.0698 5.00819 10.3475 5.12128C10.6251 5.23437 10.9226 5.29074 11.2224 5.28707C11.5222 5.2834 11.8182 5.21976 12.0931 5.09989C12.3679 4.98003 12.6159 4.80638 12.8226 4.58916C13.2265 4.1646 13.4486 3.59902 13.4414 3.01305C13.4342 2.42708 13.1984 1.8671 12.7842 1.45256C12.3699 1.03803 11.8102 0.801738 11.2242 0.794097C10.6382 0.786456 10.0725 1.00807 9.64758 1.41166ZM12.1884 3.95333C12.0638 4.08124 11.9151 4.18312 11.7508 4.25308C11.5865 4.32303 11.41 4.35965 11.2314 4.36083C11.0529 4.362 10.8759 4.3277 10.7107 4.25991C10.5455 4.19212 10.3954 4.0922 10.2691 3.96594C10.1429 3.83968 10.043 3.6896 9.97517 3.52441C9.90738 3.35922 9.87308 3.18222 9.87425 3.00366C9.87543 2.82511 9.91205 2.64857 9.982 2.48429C10.052 2.32 10.1538 2.17125 10.2818 2.04666C10.5357 1.79929 10.8769 1.66189 11.2314 1.66422C11.5859 1.66655 11.9253 1.80842 12.176 2.05911C12.4267 2.3098 12.5685 2.64914 12.5709 3.00366C12.5732 3.35819 12.4358 3.69936 12.1884 3.95333Z" fill="white"/>
</svg>
